<?xml version="1.0" standalone="no"?>
<!DOCTYPE svg PUBLIC "-//W3C//DTD SVG 20010904//EN"
 "http://www.w3.org/TR/2001/REC-SVG-20010904/DTD/svg10.dtd">
<svg version="1.0" xmlns="http://www.w3.org/2000/svg"
 width="1668.000000pt" height="1668.000000pt" viewBox="0 0 1668.000000 1668.000000"
 preserveAspectRatio="xMidYMid meet">
<metadata>
Created by potrace 1.11, written by Peter Selinger 2001-2013
</metadata>
<g transform="translate(0.000000,1668.000000) scale(0.100000,-0.100000)"
fill="#000000" stroke="none">
<path d="M7238 14743 c-15 -17 -59 -158 -73 -233 -6 -33 -407 -1669 -879
-3590 -118 -481 -307 -1251 -420 -1710 -113 -459 -372 -1514 -575 -2344 -222
-903 -371 -1527 -371 -1555 1 -77 50 -160 108 -182 15 -6 42 -8 60 -4 19 4 39
1 47 -5 7 -6 242 -54 522 -106 440 -83 513 -99 546 -121 20 -14 37 -29 37 -34
0 -12 66 -49 88 -49 11 0 32 14 45 31 l25 32 83 -13 c80 -13 83 -12 100 8 27
34 32 87 14 147 -19 66 -54 110 -100 125 -24 8 -35 18 -35 30 0 11 65 297 144
637 80 340 258 1102 396 1693 471 2013 789 3374 870 3725 45 193 88 360 96
373 10 16 21 21 37 17 18 -4 917 -162 1487 -261 80 -14 771 -135 1535 -269
765 -134 1561 -273 1770 -310 209 -36 396 -70 415 -75 23 -7 54 -30 91 -71 51
-54 60 -60 90 -57 31 3 37 10 70 71 20 38 44 103 54 145 10 42 30 112 45 157
421 1223 570 1673 570 1716 0 35 7 58 25 85 49 73 25 216 -45 266 -15 10 -931
230 -2405 577 -3706 872 -4253 1001 -4269 1007 -7 3 -28 32 -45 64 -18 33 -43
68 -58 80 -32 25 -75 26 -95 3z m1559 -752 c769 -181 2233 -526 3253 -766
1020 -240 1861 -442 1868 -449 13 -13 10 -22 -444 -1356 -80 -234 -150 -431
-157 -438 -14 -13 36 -22 -2442 413 -671 118 -1596 280 -2055 360 -459 80
-864 155 -899 166 -35 10 -84 19 -109 19 -25 0 -201 27 -390 60 -189 34 -359
61 -378 62 -42 2 -53 -8 -64 -58 -18 -80 33 -204 92 -223 18 -5 166 -33 328
-61 162 -28 303 -53 313 -56 23 -7 22 -32 -9 -161 -14 -59 -115 -490 -224
-958 -239 -1022 -569 -2436 -755 -3230 -74 -319 -215 -920 -311 -1335 -97
-415 -181 -761 -187 -767 -5 -7 -19 -13 -30 -13 -51 0 -1003 184 -1017 196
-12 12 5 91 133 611 81 329 286 1165 456 1858 708 2883 1008 4103 1287 5238
161 659 296 1203 299 1208 4 5 15 9 25 9 10 0 648 -148 1417 -329z"/>
<path d="M9226 13268 c-10 -14 -16 -44 -16 -79 0 -46 7 -70 35 -123 19 -37 35
-73 35 -81 0 -17 -102 -379 -125 -445 -32 -92 -11 -194 54 -254 32 -31 52 -34
136 -21 29 4 299 -43 1015 -180 536 -102 1119 -213 1295 -246 176 -33 341 -67
367 -75 100 -32 132 -5 153 132 23 151 116 596 136 647 35 88 21 196 -33 261
-31 38 -77 56 -141 56 -27 0 -1940 291 -2762 421 -94 14 -132 11 -149 -13z
m1579 -493 c666 -102 1222 -188 1237 -191 14 -3 28 -11 31 -18 5 -13 -85 -465
-97 -484 -4 -6 -16 -12 -27 -12 -12 0 -508 92 -1102 205 -595 114 -1156 220
-1247 237 -91 17 -171 37 -179 44 -13 12 -7 39 38 201 28 103 57 193 63 201 8
9 23 12 42 8 17 -3 576 -89 1241 -191z"/>
<path d="M9106 10677 c-15 -15 -29 -47 -37 -83 -6 -32 -255 -1062 -551 -2289
-297 -1227 -604 -2498 -683 -2825 -79 -327 -205 -847 -279 -1155 -75 -309
-136 -579 -136 -601 0 -51 50 -154 91 -188 38 -32 101 -51 469 -140 263 -64
313 -79 365 -111 53 -32 65 -36 100 -29 22 4 61 6 86 6 65 -2 84 21 84 102 0
46 -7 77 -28 124 l-29 64 77 276 c42 153 143 516 225 807 217 775 484 1728
621 2220 141 505 138 495 149 495 5 0 44 -44 86 -97 43 -54 93 -115 112 -137
19 -21 45 -62 58 -92 13 -29 88 -173 167 -321 79 -147 386 -720 682 -1273 296
-553 743 -1387 993 -1855 250 -467 538 -1005 639 -1195 198 -370 234 -422 306
-435 26 -5 111 11 323 60 158 36 295 70 305 75 29 16 54 98 53 170 -2 91 -23
139 -201 463 -85 155 -232 422 -326 592 -93 171 -216 393 -272 495 -57 102
-436 790 -842 1530 -407 740 -824 1496 -926 1681 -101 185 -188 346 -192 358
-5 18 -2 21 22 21 16 0 346 -34 733 -75 388 -41 1076 -114 1529 -162 l823 -88
28 32 c35 39 30 13 140 733 211 1377 261 1697 275 1733 33 83 2 222 -57 261
-13 8 -198 45 -433 85 -2908 498 -4381 755 -4429 771 -77 26 -92 25 -120 -3z
m449 -347 c132 -22 303 -52 380 -65 400 -69 3489 -600 3785 -651 206 -35 190
-29 190 -69 0 -57 -329 -2158 -340 -2169 -10 -10 -139 3 -2025 204 -49 5 -319
34 -600 64 -427 45 -518 58 -559 76 -38 17 -53 20 -72 11 -36 -16 -57 -67 -51
-122 7 -57 32 -107 237 -478 86 -157 368 -668 625 -1136 257 -467 652 -1185
878 -1595 225 -410 569 -1035 764 -1389 195 -354 353 -650 351 -659 -2 -11
-59 -28 -221 -65 -215 -50 -218 -50 -236 -31 -10 10 -192 343 -404 739 -411
770 -1508 2821 -1945 3635 -145 272 -284 522 -307 555 -23 33 -54 82 -70 110
-46 81 -234 314 -266 330 -24 13 -37 14 -72 4 -23 -6 -50 -15 -59 -20 -10 -5
-29 -9 -43 -9 -48 0 -5 140 -498 -1625 -108 -385 -280 -999 -382 -1365 -270
-967 -275 -984 -289 -998 -11 -12 -67 -1 -337 65 -284 69 -324 81 -327 98 -1
11 176 756 393 1655 543 2243 729 3011 975 4030 117 481 218 886 227 898 10
17 21 22 36 19 12 -3 130 -24 262 -47z"/>
<path d="M9807 9718 c-34 -27 -37 -65 -37 -467 0 -332 -3 -405 -15 -434 -32
-76 -9 -217 45 -284 60 -73 120 -91 160 -48 13 14 34 25 47 25 12 0 542 -79
1175 -175 634 -97 1283 -196 1442 -220 194 -29 295 -41 307 -34 29 15 47 88
53 214 3 66 21 277 41 470 19 192 35 378 35 413 0 76 -28 142 -76 179 -31 23
-39 25 -96 19 -49 -5 -363 29 -1423 153 -1508 178 -1397 171 -1411 96 -13 -69
24 -180 71 -211 15 -10 423 -61 1356 -171 852 -100 1339 -161 1348 -169 11
-10 8 -63 -19 -341 -20 -199 -37 -333 -44 -341 -12 -12 -62 -5 -1596 229 -428
65 -664 101 -855 130 -291 43 -326 50 -331 63 -3 7 -8 188 -12 402 l-7 389
-28 47 c-38 66 -93 93 -130 66z"/>
</g>
</svg>
